<svg width="320" height="160" viewBox="0 0 320 160" fill="none" xmlns="http://www.w3.org/2000/svg" role="img" aria-labelledby="title desc">
  <title id="title">Usrah Medic logo</title>
  <desc id="desc">Pink and teal heart family mark with Usrah Medic text.</desc>
  <rect width="320" height="160" fill="white"/>
  <g transform="translate(64 8)">
    <path d="M95.4 20.8C82 5.6 59.6 8.2 49.7 27.2C39.8 8.2 17.5 5.6 4 20.8C-10.6 37.4 3.1 65.7 20.8 82.6C32.8 94.1 43.4 100.9 49.7 104.5C56.1 100.9 66.6 94.1 78.7 82.6C96.3 65.7 110 37.4 95.4 20.8Z" fill="#EC137F"/>
    <path d="M88.4 28.1C78.3 16.6 62 20 56.7 35.7L49.7 56.3L42.7 35.7C37.4 20 21.1 16.6 11 28.1C2.5 37.7 12.8 58 28.1 72.6C37.1 81.2 45.6 87 49.7 89.6C53.9 87 62.3 81.2 71.3 72.6C86.6 58 96.9 37.7 88.4 28.1Z" fill="white"/>
    <path d="M62.8 46.9C68.5 38.7 80.8 40 84.5 49C87.8 57.2 80 68.3 72.3 75.2C65.7 81.1 58.5 85.5 49.8 90.5C41.1 85.5 33.9 81.1 27.3 75.2C19.6 68.3 11.8 57.2 15.1 49C18.8 40 31.1 38.7 36.8 46.9C40.1 51.7 40.2 58.8 49.8 58.8C59.4 58.8 59.5 51.7 62.8 46.9Z" fill="#2CC7C3"/>
    <path d="M49.7 79.6C58 71 65 66.8 72.5 66.8C78.7 66.8 83.7 70.8 86.4 76.3C90 83.8 86.8 93.5 79.2 97.1C69.4 101.8 57.4 95.2 49.7 90.6C42 95.2 30 101.8 20.2 97.1C12.6 93.5 9.4 83.8 13 76.3C15.7 70.8 20.7 66.8 26.9 66.8C34.4 66.8 41.4 71 49.7 79.6Z" fill="white"/>
    <path d="M109.4 48.2H126.6M118 39.6V56.8" stroke="#EC137F" stroke-width="8" stroke-linecap="round"/>
  </g>
  <g transform="translate(51 115)">
    <text x="0" y="0" font-family="Arial, Helvetica, sans-serif" font-size="28" font-weight="800" fill="#31C6C5" letter-spacing="1.2">USRAH</text>
    <text x="128" y="0" font-family="Arial, Helvetica, sans-serif" font-size="28" font-weight="800" fill="#EC137F" letter-spacing="1.2">MEDIC</text>
  </g>
</svg>
